# xmcd
#
# Track frame offsets: 
#        150
#        15474
#        32525
#        48155
#        64035
#        76726
#        94018
#        112541
#        129317
#        146553
#        164667
#        181639
#        200886
#        214901
#        230038
#        249376
#        263068
#        278721
#        296395
#        315012
#
# Disc length: 4363 seconds
#
# Revision: 0
# Processed by: cddbd v1.5.2PL0 Copyright (c) Steve Scherf et al.
# Submitted via: ExactAudioCopyFreeDBPlugin 1.0
#
DISCID=04110914
DTITLE=Billy Ray Cyrus - The Definitive Collection
DYEAR=2014
DGENRE=Country
TTITLE0=Achy Breaky Heart
TTITLE1=Could've Been Me
TTITLE2=She's Not Cryin' Anymore
TTITLE3=Wher'm I Gonna Live
TTITLE4=These Boots Are Made For Walkin'
TTITLE5=Someday, Somewhere, Somehow
TTITLE6=Some Gave All
TTITLE7=Never Thought I'd Fall In Love With You
TTITLE8=It Won't Be The Last
TTITLE9=In The Heart Of A Woman
TTITLE10=Somebody New
TTITLE11=Dreamin' In Color, Livin' In Black And White
TTITLE12=Words By Heart
TTITLE13=Only Time Will Tell
TTITLE14=Talk Some
TTITLE15=When I'm Gone
TTITLE16=Right Face Wrong Time
TTITLE17=Storm In The Heartland
TTITLE18=The Past
TTITLE19=A Heart With Your Name On It
EXTD=
EXTT0=
EXTT1=
EXTT2=
EXTT3=
EXTT4=
EXTT5=
EXTT6=
EXTT7=
EXTT8=
EXTT9=
EXTT10=
EXTT11=
EXTT12=
EXTT13=
EXTT14=
EXTT15=
EXTT16=
EXTT17=
EXTT18=
EXTT19=
PLAYORDER=
